HIERARCHY
ROOT root
{
	OFFSET 0.000000 0.000000 0.000000
	CHANNELS 6 Xposition Yposition Zposition Zrotation Yrotation Xrotation
	JOINT lhip
	{
		OFFSET 0.058581 -0.082280 -0.017664
		CHANNELS 3 Zrotation Yrotation Xrotation
		JOINT lknee
		{
			OFFSET 0.043451 -0.386469 0.008037
			CHANNELS 3 Zrotation Yrotation Xrotation
			JOINT lankle
			{
				OFFSET -0.014790 -0.426874 -0.037428
				CHANNELS 3 Zrotation Yrotation Xrotation
				JOINT ltoe
				{
					OFFSET 0.041054 -0.060286 0.122042
					CHANNELS 3 Zrotation Yrotation Xrotation
					End Site
					{
						OFFSET 0.000000 0.000000 0.000000
					}
				}
			}
		}
	}
	JOINT rhip
	{
		OFFSET -0.060310 -0.090513 -0.013543
		CHANNELS 3 Zrotation Yrotation Xrotation
		JOINT rknee
		{
			OFFSET -0.043257 -0.383688 -0.004843
			CHANNELS 3 Zrotation Yrotation Xrotation
			JOINT rankle
			{
				OFFSET 0.019056 -0.420046 -0.034562
				CHANNELS 3 Zrotation Yrotation Xrotation
				JOINT rtoe
				{
					OFFSET -0.034840 -0.062106 0.130323
					CHANNELS 3 Zrotation Yrotation Xrotation
					End Site
					{
						OFFSET 0.000000 0.000000 0.000000
					}
				}
			}
		}
	}
	JOINT lowerback
	{
		OFFSET 0.004439 0.124404 -0.038385
		CHANNELS 3 Zrotation Yrotation Xrotation
		JOINT upperback
		{
			OFFSET 0.004488 0.137956 0.026820
			CHANNELS 3 Zrotation Yrotation Xrotation
			JOINT chest
			{
				OFFSET -0.002265 0.056032 0.002855
				CHANNELS 3 Zrotation Yrotation Xrotation
				JOINT lowerneck
				{
					OFFSET -0.013390 0.211636 -0.033468
					CHANNELS 3 Zrotation Yrotation Xrotation
					JOINT upperneck
					{
						OFFSET 0.010113 0.088937 0.050410
						CHANNELS 3 Zrotation Yrotation Xrotation
						End Site
						{
							OFFSET 0.000000 0.000000 0.000000
						}
					}
				}
				JOINT lclavicle
				{
					OFFSET 0.071702 0.114000 -0.018898
					CHANNELS 3 Zrotation Yrotation Xrotation
					JOINT lshoulder
					{
						OFFSET 0.122921 0.045205 -0.019046
						CHANNELS 3 Zrotation Yrotation Xrotation
						JOINT lelbow
						{
							OFFSET 0.255332 -0.015649 -0.022946
							CHANNELS 3 Zrotation Yrotation Xrotation
							JOINT lwrist
							{
								OFFSET 0.265709 0.012698 -0.007375
								CHANNELS 3 Zrotation Yrotation Xrotation
								End Site
								{
									OFFSET 0.000000 0.000000 0.000000
								}
							}
						}
					}
				}
				JOINT rclavicle
				{
					OFFSET -0.082954 0.112472 -0.023707
					CHANNELS 3 Zrotation Yrotation Xrotation
					JOINT rshoulder
					{
						OFFSET -0.113228 0.046853 -0.008472
						CHANNELS 3 Zrotation Yrotation Xrotation
						JOINT relbow
						{
							OFFSET -0.260127 -0.014369 -0.031269
							CHANNELS 3 Zrotation Yrotation Xrotation
							JOINT rwrist
							{
								OFFSET -0.269108 0.006794 -0.006027
								CHANNELS 3 Zrotation Yrotation Xrotation
								End Site
								{
									OFFSET 0.000000 0.000000 0.000000
								}
							}
						}
					}
				}
			}
		}
	}
}
MOTION
Frames: 11
Frame Time: 0.033333
-0.122424 0.412130 0.986983 93.590495 6.204368 85.924598 3.831167 4.714951 -0.403028 -5.971784 -14.229148 16.562833 2.270600 16.752008 -20.635840 0.000000 -0.000000 0.000000 -3.344223 -3.521441 -18.110249 4.011443 1.505554 33.974426 9.662660 -13.698902 -15.117338 0.000000 -0.000000 0.000000 0.695067 -2.398990 21.865679 -0.500134 -1.328543 -6.041199 0.767989 -1.331711 6.708411 2.235846 -3.741358 -3.419613 4.059654 -4.220426 -0.100232 -11.611878 3.122538 -9.921307 -17.237605 -6.194709 -11.766217 19.538166 -22.201659 -19.763610 10.333603 -0.333664 6.182583 7.421701 -2.872486 -11.576776 16.788163 0.911142 -5.253641 -16.867523 20.626582 -15.105264 -19.762701 0.977495 16.759306 
-0.109824 0.415405 0.985132 92.809912 5.966812 85.497595 3.395667 5.169642 0.619811 -5.803195 -13.926044 17.112469 2.231661 16.789971 -21.371698 0.000000 -0.000000 0.000000 -3.827181 -3.805107 -19.234998 3.579242 1.492662 29.897004 10.403864 -12.967758 -13.503325 0.000000 -0.000000 0.000000 1.533374 -2.325879 22.184922 0.080572 -0.741325 -6.066165 1.294036 -0.939972 6.784053 1.612782 -3.396278 -3.901213 3.044766 -5.077474 -0.227131 -11.081154 3.477193 -9.988414 -17.400215 -6.611021 -12.072489 19.628600 -22.819065 -19.329379 10.074231 -0.617460 6.458987 8.458404 -2.422824 -11.180615 17.849331 1.934679 -4.989100 -16.983807 20.130625 -15.366903 -20.061118 1.032745 17.146694 
-0.097042 0.416896 0.983614 92.476947 5.549355 85.207056 3.001352 5.603134 1.564023 -5.829904 -13.898088 17.540153 2.138854 16.582914 -21.887975 0.000000 -0.000000 0.000000 -4.365302 -4.250020 -20.124574 3.148576 1.353593 26.105955 10.851088 -12.758133 -12.238514 0.000000 -0.000000 0.000000 2.053843 -2.161686 22.412086 0.644664 -0.343947 -6.099557 1.856222 -0.787785 6.764411 0.983068 -3.191051 -4.136686 2.260308 -5.699271 -0.341188 -10.584794 3.580951 -9.702257 -17.663105 -6.972831 -12.258683 19.649033 -23.245907 -18.905492 10.013592 -0.716407 6.414161 9.242935 -2.101081 -10.675176 18.959491 2.665843 -4.611578 -16.974813 19.836971 -15.282240 -19.989320 0.791731 17.207812 
-0.083709 0.416422 0.982771 92.603263 4.966130 84.887410 2.617771 5.994448 2.613469 -5.970610 -14.254213 17.892160 1.964350 16.284430 -22.255680 0.000000 -0.000000 0.000000 -4.925407 -4.667419 -20.626368 2.637060 1.141330 22.830703 11.264714 -12.904287 -10.897711 0.000000 -0.000000 0.000000 2.387567 -2.136883 22.885976 0.907672 -0.172697 -6.548057 2.163366 -0.744185 6.763443 0.701201 -3.240007 -4.230017 1.974991 -6.078924 -0.227723 -10.505888 3.493154 -9.475310 -17.176565 -7.269945 -12.313832 19.534647 -23.720985 -18.529366 9.976527 -1.099140 6.798070 10.025537 -1.809907 -10.300260 19.961983 3.006742 -4.023263 -16.821304 19.597473 -15.228007 -20.075048 0.614867 17.370934 
-0.069565 0.414147 0.982021 92.994252 4.334591 84.621240 2.321380 6.218013 3.694134 -6.167217 -14.728230 18.163652 1.781251 16.075096 -22.487150 0.000000 -0.000000 0.000000 -5.492594 -4.812010 -20.919779 2.178802 0.644242 20.223304 11.539269 -13.216812 -9.852115 0.000000 -0.000000 0.000000 2.729490 -2.396294 23.147879 0.781235 -0.171540 -6.889802 2.091246 -0.682088 6.749565 0.758940 -3.588590 -4.238046 2.236191 -6.110888 -0.108006 -10.756429 3.314059 -9.282288 -16.788622 -7.419231 -12.286147 19.900027 -24.455468 -18.385704 10.219489 -1.525647 7.278600 10.494536 -1.505853 -9.961591 20.874575 2.921022 -3.645190 -16.680134 19.352914 -14.954199 -19.996800 0.545326 17.354402 
-0.054909 0.410605 0.981098 93.577792 3.760453 84.557899 2.078552 6.155792 4.529402 -6.326863 -15.050909 18.502081 1.581398 16.036272 -22.576508 0.000000 -0.000000 0.000000 -6.050252 -4.515480 -21.166651 1.867044 -0.047968 18.156624 11.553658 -13.703260 -9.652027 0.000000 -0.000000 0.000000 3.122443 -2.916448 22.946080 0.518250 -0.143383 -6.948318 1.823783 -0.633568 6.786219 0.867684 -4.181651 -4.341352 2.500522 -6.124916 0.006848 -11.102612 3.433719 -9.077784 -17.738722 -7.868023 -11.894264 20.399555 -25.119031 -18.141573 10.210831 -1.696399 7.252804 10.448650 -1.526873 -9.796737 21.055054 2.821632 -3.738489 -16.577834 19.132996 -14.801337 -19.657539 0.440256 17.146319 
-0.039557 0.406176 0.980301 94.581759 3.267348 84.533425 1.903689 5.926999 5.292321 -6.374624 -15.494959 18.943831 1.243508 16.012489 -22.588371 0.000000 -0.000000 0.000000 -6.602776 -4.035222 -21.085112 1.556532 -0.581327 16.506766 11.397466 -14.323886 -9.793404 0.000000 -0.000000 0.000000 3.660614 -3.589339 22.565739 0.193971 -0.165059 -6.907682 1.499154 -0.810227 6.757711 0.882587 -5.205944 -4.152637 2.703718 -5.699356 -0.122258 -11.717667 3.397057 -8.569370 -19.550985 -8.264490 -11.220563 20.705383 -25.414208 -17.726713 9.563611 -1.395093 6.866076 9.905793 -1.720077 -9.691651 20.125883 2.514811 -4.439652 -16.525571 19.059518 -14.969258 -19.600235 0.367601 17.327095 
-0.023673 0.400696 0.979785 96.088441 2.922154 84.548483 1.915165 5.603345 5.975228 -6.302625 -16.317625 19.496782 0.813007 15.904599 -22.697900 0.000000 -0.000000 0.000000 -7.065199 -3.685949 -20.776280 1.312676 -0.819503 15.391807 11.361309 -15.038056 -9.863481 0.000000 -0.000000 0.000000 4.453510 -4.408700 22.218322 -0.210739 -0.387458 -7.091162 1.069425 -1.193699 6.738749 0.948939 -6.707580 -3.816443 2.943059 -4.787951 -0.134857 -12.662818 3.246931 -8.142191 -21.325250 -8.550380 -10.501657 20.692422 -25.506737 -17.121505 9.198833 -1.164897 6.924342 9.033981 -1.984993 -9.966856 18.317357 1.830637 -5.441916 -16.362015 19.260143 -15.347737 -20.087502 0.743701 18.336357 
-0.007243 0.394217 0.979525 97.899206 2.738376 84.638464 2.112272 5.228787 6.500191 -6.103838 -17.435910 20.237813 0.397343 15.734754 -22.866312 0.000000 -0.000000 0.000000 -7.375618 -3.444473 -20.324777 1.205783 -0.580607 14.700384 11.390391 -15.542641 -9.927551 0.000000 -0.000000 0.000000 5.379127 -5.260688 21.882014 -0.497419 -0.692045 -7.461456 0.714627 -1.697814 6.694035 1.053797 -8.435659 -3.445297 2.980828 -3.628919 -0.056349 -13.860451 3.231291 -7.885517 -22.833909 -8.891671 -9.868785 20.627758 -25.800996 -16.361968 8.781972 -0.955033 7.188454 8.119069 -2.403571 -10.356175 15.622305 1.078843 -6.608052 -16.067843 19.676971 -15.577139 -20.642406 1.358672 19.754294 
0.009441 0.387107 0.979494 99.624313 2.580396 84.722907 2.440199 4.729676 7.092925 -5.925569 -18.547296 20.835266 -0.119913 15.554978 -22.866484 0.000000 -0.000000 0.000000 -7.641404 -3.201279 -19.803673 1.307372 0.011906 14.384958 11.549569 -15.726421 -10.103711 0.000000 -0.000000 0.000000 6.204935 -5.916603 21.636629 -0.560165 -0.800264 -7.640340 0.635625 -2.272073 6.546491 1.245726 -9.813198 -3.414676 2.728991 -2.833847 -0.181883 -14.816629 3.250770 -7.716422 -24.201741 -9.269835 -9.262499 20.508286 -26.248295 -15.660815 8.484090 -0.862781 7.302472 7.330139 -2.864128 -10.770749 12.619464 0.443530 -7.644918 -15.829712 20.018484 -15.778909 -21.703115 2.041609 21.901998 
0.026525 0.379309 0.979316 100.690419 2.176432 84.958904 2.694627 4.310854 7.615645 -5.908214 -19.396611 21.229007 -0.793328 15.320108 -22.610655 0.000000 -0.000000 0.000000 -7.930604 -2.885039 -19.646703 1.446701 0.596648 14.518699 11.697526 -15.455973 -10.390586 0.000000 -0.000000 0.000000 6.741883 -6.210063 21.281526 -0.539878 -0.814928 -7.518028 0.675711 -2.621040 6.265393 1.497385 -10.505644 -3.553413 2.519841 -2.693571 -0.711296 -15.060691 3.008986 -7.609334 -24.996083 -9.245387 -8.871709 20.274295 -26.268567 -15.190286 8.228726 -0.957961 7.695172 6.588283 -2.994946 -11.130930 10.812480 -0.127935 -8.345389 -15.684842 20.257531 -15.834902 -22.532737 2.291956 23.211830 
